<svg width="172" height="35" viewBox="0 0 172 35" fill="none" xmlns="http://www.w3.org/2000/svg">
<path d="M26.2791 15.4792C25.8008 15.9622 25.4344 16.5451 25.2062 17.1864C24.978 17.8277 24.8936 18.5116 24.9588 19.1895L24.9361 19.1667C25.0032 19.9645 24.896 20.7675 24.622 21.5194C24.348 22.2714 23.9138 22.9543 23.3496 23.5205C22.7855 24.0867 22.105 24.5225 21.3557 24.7975C20.6064 25.0725 19.8063 25.18 19.0113 25.1127L19.0341 25.1355C18.0831 25.0467 17.128 25.2544 16.2989 25.7303C15.4699 26.2061 14.8072 26.9271 14.4014 27.7947C13.9956 28.6624 13.8663 29.6346 14.0311 30.5787C14.196 31.5228 14.647 32.3929 15.3226 33.0704C15.9983 33.7479 16.8657 34.1997 17.8066 34.3643C18.7475 34.5289 19.7161 34.3983 20.5803 33.9902C21.4445 33.5821 22.1622 32.9165 22.6357 32.084C23.1091 31.2515 23.3152 30.2928 23.2258 29.3385L23.2498 29.3613C23.1827 28.5635 23.2899 27.7605 23.5639 27.0085C23.8379 26.2566 24.2722 25.5736 24.8363 25.0075C25.4005 24.4413 26.0809 24.0055 26.8302 23.7305C27.5795 23.4555 28.3796 23.3479 29.1746 23.4153L29.1506 23.3925C29.9274 23.4626 30.7093 23.3348 31.4238 23.0209C32.1383 22.707 32.7623 22.2171 33.2379 21.5968C33.7136 20.9764 34.0255 20.2456 34.1447 19.472C34.264 18.6985 34.1867 17.9072 33.9201 17.1716C33.6536 16.436 33.2063 15.7798 32.6197 15.2639C32.0332 14.748 31.3263 14.389 30.5647 14.2202C29.8031 14.0514 29.0113 14.0783 28.2629 14.2984C27.5144 14.5185 26.8333 14.9247 26.2829 15.4792H26.2791Z" fill="#1E1B1B"/>
<path d="M16.9676 22.1486L16.9436 22.1258C17.6193 22.1941 18.3017 22.1109 18.9414 21.8822C19.5811 21.6534 20.1622 21.2848 20.6426 20.8031C21.123 20.3213 21.4907 19.7384 21.7191 19.0966C21.9475 18.4548 22.031 17.77 21.9634 17.0918L21.9874 17.1146C21.9203 16.3168 22.0275 15.5138 22.3015 14.7619C22.5755 14.0099 23.0097 13.327 23.5739 12.7608C24.138 12.1946 24.8185 11.7588 25.5678 11.4838C26.3171 11.2088 27.1172 11.1013 27.9122 11.1686L27.8882 11.1458C28.8392 11.2354 29.7947 11.0285 30.6242 10.5531C31.4537 10.0777 32.117 9.35715 32.5234 8.48961C32.9299 7.62206 33.0598 6.64981 32.8954 5.70545C32.731 4.7611 32.2804 3.89062 31.6049 3.21275C30.9295 2.53487 30.0621 2.08261 29.1211 1.91765C28.1801 1.75268 27.2113 1.88304 26.3469 2.29095C25.4825 2.69886 24.7644 3.36446 24.2908 4.19696C23.8171 5.02946 23.6109 5.98834 23.7002 6.94279L23.6775 6.91872C23.7448 7.71663 23.6378 8.51966 23.3638 9.27175C23.0899 10.0238 22.6557 10.7068 22.0915 11.2731C21.5273 11.8393 20.8467 12.2751 20.0973 12.55C19.3479 12.8249 18.5477 12.9323 17.7527 12.8648L17.7754 12.8888C17.0997 12.8205 16.4173 12.9037 15.7776 13.1325C15.1379 13.3613 14.5568 13.7298 14.0765 14.2116C13.5961 14.6933 13.2284 15.2762 12.9999 15.918C12.7715 16.5599 12.6881 17.2446 12.7556 17.9228L12.7329 17.9C12.7998 18.6978 12.6924 19.5006 12.4184 20.2525C12.1443 21.0044 11.71 21.6872 11.1459 22.2534C10.5818 22.8195 9.90143 23.2553 9.15224 23.5304C8.40305 23.8054 7.60307 23.9132 6.80812 23.846L6.83084 23.8688C5.87979 23.7792 4.92435 23.9862 4.09482 24.4615C3.2653 24.9369 2.60208 25.6575 2.19562 26.525C1.78917 27.3926 1.65927 28.3648 1.82365 29.3092C1.98802 30.2535 2.43867 31.124 3.11412 31.8019C3.78957 32.4798 4.65694 32.932 5.59792 33.097C6.53891 33.262 7.50769 33.1316 8.37213 32.7237C9.23657 32.3158 9.95459 31.6502 10.4283 30.8177C10.9019 29.9852 11.1081 29.0263 11.0188 28.0719L11.0428 28.0947C10.9757 27.2968 11.0829 26.4939 11.3569 25.7419C11.6309 24.9899 12.0652 24.307 12.6293 23.7408C13.1935 23.1746 13.8739 22.7389 14.6232 22.4639C15.3725 22.1889 16.1726 22.0813 16.9676 22.1486V22.1486Z" fill="#1E1B1B"/>
<path d="M8.50861 19.6063C8.98702 19.1234 9.35329 18.5405 9.5813 17.8991C9.8093 17.2578 9.89341 16.5738 9.82762 15.896L9.8516 15.9188C9.78444 15.1208 9.89168 14.3176 10.1658 13.5654C10.44 12.8132 10.8745 12.1302 11.4389 11.564C12.0033 10.9977 12.6841 10.562 13.4337 10.2872C14.1834 10.0124 14.9837 9.90507 15.7789 9.97281L15.7549 9.95001C16.7056 10.0394 17.6607 9.8323 18.4898 9.35698C19.319 8.88166 19.9819 8.16124 20.3881 7.29396C20.7943 6.42669 20.924 5.45479 20.7597 4.51079C20.5953 3.56679 20.1448 2.69664 19.4696 2.01902C18.7944 1.34139 17.9274 0.889272 16.9867 0.724314C16.0461 0.559355 15.0777 0.689589 14.2135 1.09725C13.3493 1.50492 12.6315 2.17016 12.1578 3.00228C11.6842 3.8344 11.4779 4.79287 11.5669 5.747L11.5442 5.7242C11.6113 6.52205 11.5041 7.32499 11.2301 8.07697C10.9561 8.82895 10.5219 9.51186 9.95771 10.078C9.39356 10.6442 8.71309 11.08 7.96379 11.355C7.2145 11.63 6.41443 11.7376 5.61943 11.6702L5.64215 11.693C4.86535 11.6231 4.08354 11.7511 3.36916 12.0652C2.65477 12.3792 2.03093 12.8691 1.55545 13.4896C1.07996 14.11 0.768214 14.8408 0.649093 15.6144C0.529972 16.3879 0.607331 17.1791 0.874003 17.9146C1.14067 18.6501 1.58803 19.3062 2.17462 19.8221C2.7612 20.3379 3.46803 20.6968 4.22962 20.8655C4.9912 21.0342 5.78289 21.0072 6.53133 20.7871C7.27977 20.567 7.96074 20.1608 8.51114 19.6063H8.50861Z" fill="#1E1B1B"/>
<path d="M47.6079 6.97168H51.3566V25.2797H47.6079V6.97168Z" fill="#1E1B1B"/>
<path d="M53.4797 19.011C53.4744 17.6953 53.8584 16.4077 54.5829 15.3112C55.3074 14.2147 56.3399 13.3586 57.5496 12.8515C58.7593 12.3444 60.0917 12.2089 61.3782 12.4624C62.6646 12.7158 63.8472 13.3467 64.776 14.2752C65.7049 15.2037 66.3383 16.3879 66.596 17.6779C66.8537 18.968 66.7241 20.3057 66.2236 21.5218C65.7231 22.7378 64.8743 23.7774 63.7846 24.5089C62.6949 25.2405 61.4134 25.6309 60.1025 25.631C59.2322 25.6409 58.3687 25.4767 57.5625 25.1479C56.7562 24.819 56.0234 24.3322 55.4067 23.7159C54.7901 23.0995 54.3021 22.366 53.9712 21.5582C53.6403 20.7503 53.4732 19.8844 53.4797 19.011V19.011ZM62.9765 19.011C62.9609 18.4439 62.779 17.894 62.4536 17.4301C62.1283 16.9661 61.6739 16.6087 61.1473 16.4025C60.6206 16.1963 60.0451 16.1505 59.4926 16.2708C58.9402 16.3911 58.4353 16.6722 58.0412 17.0789C57.647 17.4855 57.3811 17.9998 57.2765 18.5574C57.172 19.1149 57.2336 19.691 57.4536 20.2136C57.6735 20.7363 58.0421 21.1822 58.5133 21.4957C58.9844 21.8093 59.5372 21.9765 60.1025 21.9764C60.4896 21.9868 60.8747 21.9166 61.2334 21.7701C61.5922 21.6237 61.9168 21.4043 62.1868 21.1257C62.4569 20.847 62.6664 20.5153 62.8024 20.1513C62.9383 19.7874 62.9976 19.3991 62.9765 19.011V19.011Z" fill="#1E1B1B"/>
<path d="M81.6658 12.7404V24.6476C81.6658 28.8608 78.3917 30.6418 75.0683 30.6418C73.8981 30.7297 72.7265 30.4925 71.6818 29.9562C70.6372 29.4199 69.7598 28.6053 69.146 27.6017L72.3444 25.7459C72.6024 26.2691 73.0135 26.7007 73.5226 26.983C74.0317 27.2653 74.6146 27.3848 75.1932 27.3255C75.5631 27.3769 75.9397 27.3442 76.2952 27.2299C76.6507 27.1155 76.9761 26.9224 77.2472 26.6648C77.5183 26.4071 77.7283 26.0916 77.8615 25.7416C77.9947 25.3916 78.0478 25.016 78.0168 24.6426V23.4962C77.5778 24.0352 77.0191 24.4635 76.3854 24.7466C75.7517 25.0297 75.0606 25.1598 74.3678 25.1265C72.7191 25.0743 71.1553 24.3803 70.0075 23.1915C68.8596 22.0026 68.2178 20.4121 68.2178 18.7567C68.2178 17.1013 68.8596 15.5108 70.0075 14.322C71.1553 13.1331 72.7191 12.4391 74.3678 12.387C75.0606 12.3536 75.7517 12.4837 76.3854 12.7668C77.0191 13.0499 77.5778 13.4782 78.0168 14.0172V12.7378L81.6658 12.7404ZM78.0181 18.7586C78.0433 18.1523 77.8871 17.5523 77.5696 17.0358C77.2521 16.5193 76.7879 16.11 76.2367 15.8606C75.6855 15.6111 75.0725 15.5329 74.4766 15.636C73.8808 15.7391 73.3293 16.0188 72.8931 16.4392C72.457 16.8595 72.1562 17.4012 72.0294 17.9946C71.9027 18.5879 71.9557 19.2058 72.1818 19.7686C72.4079 20.3314 72.7966 20.8135 73.298 21.1527C73.7994 21.4919 74.3904 21.6728 74.9951 21.6721C75.3889 21.6997 75.7842 21.6442 76.1554 21.5091C76.5266 21.3741 76.8655 21.1625 77.1503 20.8881C77.4351 20.6136 77.6594 20.2823 77.8089 19.9156C77.9583 19.5488 78.0296 19.1547 78.0181 18.7586V18.7586Z" fill="#1E1B1B"/>
<path d="M83.7888 19.011C83.7835 17.6953 84.1675 16.4077 84.892 15.3112C85.6165 14.2147 86.649 13.3586 87.8587 12.8515C89.0684 12.3444 90.4008 12.2089 91.6873 12.4624C92.9737 12.7158 94.1562 13.3467 95.0851 14.2752C96.014 15.2037 96.6474 16.3879 96.9051 17.6779C97.1628 18.968 97.0332 20.3057 96.5327 21.5218C96.0322 22.7378 95.1834 23.7774 94.0937 24.5089C93.004 25.2405 91.7225 25.6309 90.4115 25.631C89.5413 25.6409 88.6778 25.4767 87.8716 25.1479C87.0653 24.819 86.3324 24.3322 85.7158 23.7159C85.0992 23.0995 84.6112 22.366 84.2803 21.5582C83.9494 20.7503 83.7823 19.8844 83.7888 19.011V19.011ZM93.2856 19.011C93.2699 18.4439 93.0881 17.894 92.7627 17.4301C92.4374 16.9661 91.983 16.6087 91.4563 16.4025C90.9297 16.1963 90.3542 16.1505 89.8017 16.2708C89.2493 16.3911 88.7444 16.6722 88.3503 17.0789C87.9561 17.4855 87.6901 17.9998 87.5856 18.5574C87.4811 19.1149 87.5427 19.691 87.7627 20.2136C87.9826 20.7363 88.3512 21.1822 88.8223 21.4957C89.2935 21.8093 89.8462 21.9765 90.4115 21.9764C90.7987 21.9868 91.1838 21.9166 91.5425 21.7701C91.9013 21.6237 92.2259 21.4043 92.4959 21.1257C92.766 20.847 92.9755 20.5153 93.1114 20.1513C93.2473 19.7874 93.3066 19.3991 93.2856 19.011Z" fill="#1E1B1B"/>
<path d="M98.7827 9.37987C98.7827 8.93342 98.9146 8.49699 99.1618 8.12578C99.4089 7.75457 99.7602 7.46524 100.171 7.29439C100.582 7.12354 101.034 7.07883 101.471 7.16593C101.907 7.25303 102.308 7.46802 102.622 7.78371C102.937 8.0994 103.151 8.50162 103.238 8.93949C103.325 9.37737 103.28 9.83124 103.11 10.2437C102.94 10.6562 102.651 11.0087 102.282 11.2568C101.912 11.5048 101.477 11.6372 101.032 11.6372C100.437 11.6312 99.8686 11.3915 99.448 10.9695C99.0275 10.5474 98.7886 9.97671 98.7827 9.37987V9.37987ZM99.1614 12.7405H102.911V25.2811H99.1563L99.1614 12.7405Z" fill="#1E1B1B"/>
<path d="M119.098 19.011C119.141 19.8398 119.021 20.669 118.744 21.451C118.467 22.2329 118.038 22.9522 117.483 23.5674C116.928 24.1826 116.257 24.6816 115.51 25.0358C114.762 25.3899 113.951 25.5922 113.125 25.6309C112.431 25.669 111.736 25.5514 111.092 25.2867C110.449 25.0221 109.871 24.6169 109.403 24.1007V30.2963H105.654V12.7407H109.403V13.9187C109.872 13.4029 110.449 12.9981 111.093 12.7337C111.736 12.4692 112.431 12.3518 113.125 12.3898C113.951 12.4284 114.762 12.6306 115.51 12.9847C116.258 13.3389 116.929 13.838 117.484 14.4534C118.039 15.0688 118.468 15.7883 118.745 16.5705C119.022 17.3526 119.142 18.1821 119.098 19.011V19.011ZM115.349 19.011C115.335 18.4241 115.148 17.8546 114.812 17.3737C114.477 16.8928 114.007 16.5219 113.463 16.3075C112.918 16.0931 112.322 16.0446 111.751 16.1682C111.179 16.2917 110.656 16.5818 110.247 17.0021C109.839 17.4225 109.563 17.9544 109.454 18.5312C109.346 19.1081 109.409 19.7043 109.636 20.2453C109.864 20.7863 110.245 21.2479 110.732 21.5725C111.22 21.8971 111.792 22.0702 112.377 22.0702C112.778 22.0881 113.179 22.0206 113.553 21.8722C113.927 21.7238 114.265 21.4977 114.546 21.2089C114.827 20.92 115.043 20.5749 115.182 20.1961C115.32 19.8173 115.377 19.4135 115.349 19.011V19.011Z" fill="#1E1B1B"/>
<path d="M130.666 21.518C130.666 24.4023 128.168 25.6311 125.469 25.6311C124.379 25.7302 123.284 25.4988 122.326 24.9667C121.368 24.4347 120.592 23.6265 120.096 22.6467L123.344 20.7909C123.475 21.2438 123.757 21.6378 124.143 21.9071C124.529 22.1763 124.996 22.3046 125.464 22.2704C126.363 22.2704 126.814 21.9943 126.814 21.4939C126.814 20.1132 120.665 20.8416 120.665 16.503C120.665 13.7682 122.965 12.39 125.564 12.39C126.541 12.3589 127.508 12.5915 128.365 13.0634C129.222 13.5353 129.937 14.2292 130.436 15.0729L127.238 16.8032C127.097 16.4748 126.864 16.195 126.566 15.9988C126.269 15.8026 125.92 15.6986 125.564 15.6999C124.914 15.6999 124.514 15.9533 124.514 16.4017C124.519 17.8318 130.666 16.878 130.666 21.518Z" fill="#1E1B1B"/>
<path d="M144.36 12.7407V25.2814H140.611V24.102C140.178 24.6224 139.629 25.0324 139.008 25.2984C138.387 25.5644 137.712 25.6788 137.039 25.6322C134.514 25.6322 132.369 23.8271 132.369 20.4386V12.7407H136.117V19.8876C136.086 20.1863 136.12 20.4882 136.217 20.7724C136.313 21.0567 136.471 21.3163 136.677 21.5333C136.884 21.7503 137.136 21.9195 137.415 22.0291C137.693 22.1386 137.992 22.1859 138.291 22.1677C139.665 22.1677 140.615 21.3659 140.615 19.5849V12.7445L144.36 12.7407Z" fill="#1E1B1B"/>
<path d="M165.855 17.5808V25.28H162.106V17.9063C162.106 16.6523 161.506 15.8504 160.307 15.8504C159.058 15.8504 158.357 16.7283 158.357 18.2078V25.28H154.61V17.9063C154.61 16.6523 154.01 15.8504 152.81 15.8504C151.56 15.8504 150.861 16.7283 150.861 18.2078V25.28H147.112V12.7393H150.861V13.892C151.25 13.3807 151.76 12.9751 152.345 12.7124C152.93 12.4498 153.571 12.3384 154.21 12.3884C154.851 12.357 155.49 12.4928 156.063 12.7827C156.637 13.0727 157.126 13.5068 157.483 14.0428C157.898 13.482 158.448 13.0362 159.082 12.7468C159.716 12.4575 160.412 12.3342 161.106 12.3884C163.975 12.3897 165.855 14.4456 165.855 17.5808Z" fill="#1E1B1B"/>
<path d="M169.026 12.6633C170.562 12.6633 171.807 11.4134 171.807 9.87146C171.807 8.32955 170.562 7.07959 169.026 7.07959C167.489 7.07959 166.244 8.32955 166.244 9.87146C166.244 11.4134 167.489 12.6633 169.026 12.6633Z" fill="#1E1B1B"/>
</svg>
