<svg width="166" height="38" viewBox="0 0 166 38" fill="none" xmlns="http://www.w3.org/2000/svg">
<path d="M40.1968 9.0293H44.0037V27.5079H40.1968V9.0293Z" fill="#1E1B1B"/>
<path d="M46.1354 21.1779C46.1354 19.8485 46.5271 18.5489 47.2608 17.444C47.9946 16.3392 49.0373 15.4787 50.2569 14.9717C51.4764 14.4647 52.8179 14.334 54.1113 14.5962C55.4046 14.8584 56.5916 15.5016 57.5218 16.4444C58.452 17.3871 59.0835 18.587 59.3362 19.8918C59.589 21.1967 59.4516 22.5477 58.9415 23.7738C58.4314 24.9999 57.5716 26.0458 56.471 26.7788C55.3704 27.5119 54.0787 27.8992 52.7594 27.8916C51.8844 27.8985 51.0169 27.7292 50.2076 27.3938C49.3984 27.0584 48.6637 26.5635 48.0467 25.9382C47.4298 25.3129 46.9429 24.5697 46.6147 23.7523C46.2865 22.9349 46.1235 22.0596 46.1354 21.1779V21.1779ZM55.6781 21.1779C55.6631 20.6048 55.4808 20.0488 55.1539 19.5795C54.827 19.1102 54.3701 18.7485 53.8403 18.5395C53.3104 18.3306 52.7313 18.2837 52.1751 18.4047C51.619 18.5257 51.1106 18.8093 50.7136 19.2199C50.3165 19.6306 50.0484 20.1501 49.9428 20.7135C49.8372 21.2769 49.8988 21.8591 50.1198 22.3874C50.3409 22.9157 50.7116 23.3666 51.1856 23.6838C51.6596 24.0009 52.2158 24.1701 52.7848 24.1703C53.1722 24.1779 53.5569 24.1049 53.915 23.9559C54.2731 23.8068 54.5969 23.585 54.8661 23.3041C55.1352 23.0233 55.344 22.6895 55.4793 22.3237C55.6147 21.9578 55.6737 21.5678 55.6527 21.1779H55.6781Z" fill="#1E1B1B"/>
<path d="M74.4462 14.8479V26.8813C74.4462 31.1269 71.1468 32.93 67.8094 32.93C66.6322 33.0274 65.4515 32.7917 64.4 32.2495C63.3485 31.7073 62.4682 30.88 61.8579 29.8609L65.0684 27.9939C65.3286 28.5225 65.7424 28.9586 66.2548 29.2442C66.7672 29.5298 67.3537 29.6512 67.9363 29.5924C68.3074 29.6385 68.6841 29.6013 69.0393 29.4836C69.3946 29.3659 69.7196 29.1706 69.9912 28.9115C70.2628 28.6525 70.4742 28.3362 70.6104 27.9852C70.7465 27.6343 70.8041 27.2573 70.7788 26.8813V25.7176C70.3358 26.2589 69.7737 26.6887 69.1371 26.9728C68.5005 27.257 67.8069 27.3876 67.1115 27.3545C65.4287 27.3545 63.8149 26.6808 62.625 25.4817C61.4351 24.2826 60.7666 22.6563 60.7666 20.9605C60.7666 19.2647 61.4351 17.6384 62.625 16.4393C63.8149 15.2402 65.4287 14.5666 67.1115 14.5666C67.8069 14.5334 68.5005 14.6641 69.1371 14.9482C69.7737 15.2324 70.3358 15.6621 70.7788 16.2034V14.9246L74.4462 14.8479ZM70.7788 20.9222C70.8041 20.3103 70.6473 19.7049 70.3284 19.1836C70.0095 18.6624 69.5432 18.2492 68.9894 17.9972C68.4356 17.7451 67.8196 17.6658 67.2207 17.7694C66.6219 17.873 66.0674 18.1547 65.6287 18.5784C65.19 19.0021 64.8871 19.5484 64.7589 20.1469C64.6307 20.7455 64.6832 21.369 64.9095 21.9373C65.1358 22.5056 65.5256 22.9927 66.0288 23.3359C66.532 23.6792 67.1256 23.8629 67.7333 23.8634C68.1298 23.8922 68.5279 23.8368 68.9018 23.7009C69.2758 23.565 69.6173 23.3516 69.9043 23.0744C70.1913 22.7972 70.4174 22.4625 70.5681 22.0918C70.7187 21.721 70.7905 21.3226 70.7788 20.9222V20.9222Z" fill="#1E1B1B"/>
<path d="M76.5908 21.178C76.5908 19.8496 76.9818 18.5511 77.7144 17.4468C78.447 16.3424 79.4883 15.4819 80.7063 14.9742C81.9244 14.4664 83.2646 14.3342 84.5573 14.5943C85.85 14.8544 87.037 15.4951 87.9682 16.4353C88.8994 17.3755 89.5329 18.5729 89.7885 19.8761C90.0442 21.1793 89.9104 22.5296 89.4042 23.7561C88.8981 24.9826 88.0422 26.0303 86.9449 26.7665C85.8477 27.5026 84.5584 27.8942 83.2402 27.8917C82.3636 27.9003 81.494 27.7324 80.6826 27.3978C79.8712 27.0633 79.1342 26.5689 78.5149 25.9436C77.8956 25.3183 77.4064 24.5747 77.076 23.7563C76.7456 22.938 76.5806 22.0614 76.5908 21.178ZM86.1335 21.178C86.1185 20.6043 85.9358 20.0478 85.6084 19.5783C85.2809 19.1088 84.8232 18.7471 84.2927 18.5385C83.7622 18.3299 83.1823 18.2838 82.6259 18.4058C82.0694 18.5279 81.5611 18.8127 81.1645 19.2246C80.768 19.6365 80.5009 20.1572 80.3968 20.7214C80.2926 21.2857 80.356 21.8683 80.5789 22.3964C80.8019 22.9245 81.1746 23.3745 81.6503 23.69C82.1259 24.0056 82.6834 24.1727 83.2529 24.1704C83.6403 24.178 84.025 24.105 84.3831 23.956C84.7412 23.8069 85.065 23.5851 85.3341 23.3042C85.6033 23.0234 85.8121 22.6896 85.9474 22.3238C86.0828 21.9579 86.1418 21.5679 86.1208 21.178H86.1335Z" fill="#1E1B1B"/>
<path d="M91.6533 11.4589C91.6533 11.0087 91.7858 10.5686 92.034 10.1943C92.2822 9.81992 92.635 9.52817 93.0477 9.35589C93.4604 9.1836 93.9146 9.13853 94.3527 9.22636C94.7909 9.31419 95.1934 9.53098 95.5093 9.84932C95.8252 10.1677 96.0403 10.5732 96.1275 11.0148C96.2146 11.4563 96.1699 11.914 95.9989 12.33C95.8279 12.7459 95.5384 13.1014 95.167 13.3515C94.7955 13.6016 94.3588 13.7351 93.9121 13.7351C93.3151 13.7285 92.7444 13.4865 92.3222 13.0611C91.9 12.6356 91.6599 12.0605 91.6533 11.4589V11.4589ZM92.0213 14.8477H95.8282V27.5077H92.0213V14.8477Z" fill="#1E1B1B"/>
<path d="M112.122 21.1777C112.165 22.0196 112.042 22.8618 111.761 23.6557C111.479 24.4495 111.044 25.1795 110.482 25.8035C109.919 26.4274 109.24 26.9331 108.483 27.2915C107.725 27.6498 106.905 27.8536 106.069 27.8913C105.36 27.9389 104.65 27.8244 103.99 27.5565C103.331 27.2886 102.741 26.8741 102.262 26.344V32.5973H98.4556V14.8476H102.262V16.0369C102.741 15.5084 103.332 15.0958 103.991 14.8301C104.651 14.5643 105.361 14.4523 106.069 14.5024C106.902 14.5401 107.719 14.7428 108.473 15.0987C109.228 15.4546 109.906 15.9568 110.468 16.5767C111.03 17.1965 111.465 17.9219 111.749 18.7113C112.033 19.5008 112.16 20.3388 112.122 21.1777V21.1777ZM108.316 21.1777C108.301 20.5837 108.112 20.0075 107.773 19.5211C107.435 19.0347 106.961 18.6599 106.412 18.4436C105.863 18.2273 105.263 18.1791 104.687 18.3051C104.11 18.4311 103.584 18.7257 103.173 19.1519C102.762 19.5782 102.486 20.1171 102.378 20.7012C102.27 21.2852 102.335 21.8884 102.566 22.4352C102.796 22.982 103.182 23.448 103.674 23.7748C104.167 24.1016 104.744 24.2747 105.333 24.2723C105.737 24.2896 106.14 24.2207 106.516 24.07C106.891 23.9194 107.231 23.6905 107.512 23.3982C107.794 23.106 108.011 22.7572 108.15 22.3745C108.288 21.9918 108.344 21.5839 108.316 21.1777V21.1777Z" fill="#1E1B1B"/>
<path d="M123.708 23.7099C123.708 26.6256 121.17 27.866 118.48 27.866C117.382 27.9655 116.281 27.7312 115.317 27.1932C114.353 26.6552 113.572 25.8383 113.074 24.8481L116.348 22.981C116.477 23.4373 116.759 23.8349 117.144 24.1073C117.53 24.3796 117.997 24.5102 118.467 24.4772C119.368 24.4772 119.825 24.1959 119.825 23.6844C119.825 22.2905 113.645 23.0322 113.645 18.6459C113.645 15.8837 115.954 14.5026 118.568 14.5026C119.562 14.4578 120.549 14.685 121.425 15.1601C122.301 15.6351 123.033 16.3404 123.543 17.2009L120.269 18.94C120.124 18.6101 119.888 18.3295 119.588 18.1321C119.289 17.9346 118.939 17.8288 118.581 17.8275C117.921 17.8275 117.528 18.0833 117.528 18.5308C117.528 19.9887 123.708 19.0296 123.708 23.7099Z" fill="#1E1B1B"/>
<path d="M137.502 14.8477V27.5077H133.695V26.3184C133.262 26.8449 132.713 27.2615 132.091 27.5347C131.47 27.8079 130.793 27.9301 130.116 27.8913C127.578 27.8913 125.408 26.0627 125.408 22.6483V14.8477H129.215V22.0728C129.185 22.3749 129.221 22.6799 129.319 22.9668C129.418 23.2537 129.577 23.5156 129.785 23.7345C129.994 23.9533 130.248 24.1239 130.528 24.2345C130.809 24.345 131.11 24.3928 131.41 24.3747C132.781 24.3747 133.745 23.5562 133.745 21.8171V14.8477H137.502Z" fill="#1E1B1B"/>
<path d="M159.074 19.7325V27.5076H155.267V20.065C155.267 18.7862 154.67 17.9934 153.465 17.9934C152.259 17.9934 151.498 18.8757 151.498 20.3719V27.5076H147.691V20.065C147.691 18.7862 147.095 17.9934 145.889 17.9934C144.684 17.9934 143.922 18.8757 143.922 20.3719V27.5076H140.115V14.8475H143.922V16.0112C144.316 15.4971 144.831 15.09 145.421 14.8265C146.01 14.5631 146.655 14.4517 147.298 14.5023C147.941 14.4684 148.583 14.6039 149.159 14.8953C149.735 15.1868 150.227 15.6242 150.584 16.1647C151.002 15.6 151.556 15.1514 152.193 14.8607C152.83 14.57 153.529 14.4466 154.226 14.5023C157.196 14.5023 159.074 16.5739 159.074 19.7325Z" fill="#1E1B1B"/>
<path d="M17.5199 5.7044V0.269531H0.515625V37.6103H17.5199V32.1754C14.0366 32.1754 10.6959 30.781 8.23283 28.2988C5.76975 25.8167 4.386 22.4502 4.386 18.9399C4.386 15.4296 5.76975 12.0631 8.23283 9.581C10.6959 7.09886 14.0366 5.7044 17.5199 5.7044V5.7044Z" fill="#1E1B1B"/>
<path d="M17.52 5.70459V32.1756C21.0033 32.1756 24.344 30.7812 26.8071 28.299C29.2702 25.8169 30.6539 22.4504 30.6539 18.9401C30.6539 15.4298 29.2702 12.0633 26.8071 9.58118C24.344 7.09904 21.0033 5.70459 17.52 5.70459V5.70459Z" fill="#1E1B1B"/>
<path d="M162.272 14.7712C163.814 14.7712 165.064 13.5116 165.064 11.9579C165.064 10.4041 163.814 9.14453 162.272 9.14453C160.73 9.14453 159.48 10.4041 159.48 11.9579C159.48 13.5116 160.73 14.7712 162.272 14.7712Z" fill="#1E1B1B"/>
</svg>
