<svg width="152" height="35" viewBox="0 0 152 35" fill="none" xmlns="http://www.w3.org/2000/svg">
<path d="M44.2495 10.031H48.0564V25.3964H44.2495V10.031ZM49.5665 19.5948C49.5665 15.7946 51.9014 13.5272 55.5053 13.5272C59.1092 13.5272 61.4441 15.7946 61.4441 19.5948C61.4441 23.395 59.16 25.6751 55.5053 25.6751C51.8507 25.6751 49.5665 23.4583 49.5665 19.5948ZM57.6245 19.5948C57.6245 17.5047 56.7997 16.276 55.5053 16.276C54.211 16.276 53.3988 17.5427 53.3988 19.5948C53.3988 21.6469 54.1983 22.8883 55.5053 22.8883C56.8124 22.8883 57.6245 21.7229 57.6245 19.6075V19.5948ZM62.8781 26.1438H66.5327C66.7066 26.5295 67.0007 26.8489 67.3711 27.0543C67.7415 27.2597 68.1685 27.3402 68.5885 27.2839C70.0351 27.2839 70.7965 26.4985 70.7965 25.3584V23.2303H70.7204C70.417 23.8826 69.9249 24.4291 69.3074 24.7994C68.6898 25.1697 67.9753 25.3468 67.256 25.3078C64.477 25.3078 62.637 23.1923 62.637 19.5568C62.637 15.9213 64.3882 13.6285 67.3068 13.6285C68.0486 13.5995 68.7816 13.7975 69.4076 14.1959C70.0336 14.5944 70.5226 15.1743 70.8092 15.858V15.858V13.7425H74.6161V25.2698C74.6161 28.0439 72.167 29.7667 68.5504 29.7667C65.1876 29.7667 63.0938 28.2592 62.8781 26.1565V26.1438ZM70.8092 19.5821C70.8092 17.7327 69.959 16.5673 68.6138 16.5673C67.2687 16.5673 66.4439 17.7201 66.4439 19.5821C66.4439 21.4442 67.256 22.4956 68.6138 22.4956C69.9717 22.4956 70.8092 21.4696 70.8092 19.5948V19.5821ZM76.05 19.5821C76.05 15.782 78.385 13.5145 81.9889 13.5145C85.5927 13.5145 87.9404 15.782 87.9404 19.5821C87.9404 23.3823 85.6562 25.6624 81.9889 25.6624C78.3215 25.6624 76.05 23.4583 76.05 19.5948V19.5821ZM84.108 19.5821C84.108 17.492 83.2832 16.2633 81.9889 16.2633C80.6945 16.2633 79.9458 17.5427 79.9458 19.6075C79.9458 21.6723 80.7453 22.901 82.0396 22.901C83.334 22.901 84.108 21.7229 84.108 19.6075V19.5821ZM89.387 10.9811C89.377 10.5974 89.4814 10.2194 89.6869 9.89497C89.8924 9.57057 90.1897 9.31437 90.5412 9.15887C90.8928 9.00337 91.2826 8.95555 91.6614 9.02149C92.0402 9.08743 92.3908 9.26415 92.6689 9.52925C92.9469 9.79435 93.1398 10.1359 93.2232 10.5106C93.3066 10.8853 93.2766 11.2762 93.1371 11.6339C92.9976 11.9915 92.7549 12.2998 92.4397 12.5196C92.1245 12.7394 91.751 12.8608 91.3666 12.8685C91.1117 12.886 90.8561 12.8506 90.6155 12.7648C90.375 12.6789 90.1549 12.5443 89.969 12.3694C89.7831 12.1945 89.6354 11.9832 89.5353 11.7486C89.4351 11.5141 89.3846 11.2614 89.387 11.0064V10.9811ZM89.387 13.7679H93.1939V25.3964H89.387V13.7679ZM107.013 19.5821C107.013 23.3823 105.325 25.5484 102.432 25.5484C101.69 25.596 100.952 25.4149 100.316 25.0298C99.6806 24.6447 99.1789 24.074 98.8789 23.395H98.8028V29.1206H94.9959V13.7425H98.8028V15.82H98.8789C99.165 15.1297 99.6571 14.5442 100.288 14.1431C100.919 13.7419 101.659 13.5445 102.407 13.5778C105.325 13.6285 107.064 15.8073 107.064 19.6075L107.013 19.5821ZM103.206 19.5821C103.206 17.7327 102.356 16.5547 101.023 16.5547C99.6911 16.5547 98.8408 17.7454 98.8282 19.5821C98.8155 21.4189 99.6911 22.597 101.023 22.597C102.356 22.597 103.206 21.4442 103.206 19.6075V19.5821ZM113.548 13.5018C116.708 13.5018 118.624 14.9966 118.713 17.3907H115.249C115.249 16.5673 114.563 16.048 113.51 16.048C112.457 16.048 111.987 16.4533 111.987 17.0487C111.987 17.6441 112.406 17.8341 113.256 18.0114L115.693 18.5054C118.015 18.9995 119.005 19.9368 119.005 21.6976C119.005 24.1044 116.81 25.6498 113.574 25.6498C110.338 25.6498 108.219 24.1044 108.054 21.7356H111.721C111.835 22.597 112.52 23.1037 113.637 23.1037C114.754 23.1037 115.261 22.7363 115.261 22.1283C115.261 21.5202 114.906 21.3936 113.992 21.2036L111.797 20.7349C109.526 20.2662 108.333 19.0628 108.333 17.2894C108.358 15.0093 110.401 13.5272 113.548 13.5272V13.5018ZM131.707 25.3711H128.04V23.205H127.964C127.762 23.9323 127.318 24.5688 126.704 25.0089C126.089 25.449 125.343 25.6662 124.588 25.6244C124.01 25.6573 123.431 25.5658 122.891 25.3562C122.351 25.1466 121.863 24.8237 121.459 24.4094C121.054 23.9951 120.744 23.4991 120.548 22.9547C120.353 22.4104 120.276 21.8305 120.325 21.2542V13.7425H124.132V20.3802C124.132 21.7609 124.842 22.4956 126.022 22.4956C126.299 22.4962 126.573 22.4377 126.825 22.3241C127.077 22.2104 127.302 22.0443 127.485 21.8368C127.667 21.6292 127.804 21.3851 127.884 21.1208C127.964 20.8565 127.987 20.5781 127.951 20.3042V13.7425H131.758L131.707 25.3711ZM133.547 13.7425H137.227V15.9846H137.304C137.506 15.267 137.94 14.6365 138.54 14.1918C139.139 13.7471 139.869 13.5134 140.616 13.5272C141.375 13.4665 142.13 13.6934 142.729 14.1628C143.329 14.6323 143.73 15.3098 143.851 16.0606H143.928C144.158 15.3018 144.634 14.641 145.282 14.1823C145.93 13.7236 146.713 13.4931 147.506 13.5272C148.024 13.5098 148.539 13.6014 149.019 13.7959C149.499 13.9905 149.933 14.2836 150.292 14.6564C150.651 15.0291 150.927 15.4731 151.103 15.9594C151.279 16.4458 151.351 16.9637 151.313 17.4794V25.3964H147.506V18.4928C147.506 17.226 146.935 16.6433 145.869 16.6433C145.631 16.6413 145.396 16.6902 145.179 16.7868C144.962 16.8833 144.768 17.0252 144.61 17.2028C144.453 17.3805 144.335 17.5899 144.266 17.8168C144.196 18.0437 144.176 18.2828 144.207 18.5181V25.3964H140.59V18.4421C140.59 17.2767 140.019 16.6433 138.979 16.6433C138.738 16.6434 138.501 16.6944 138.281 16.7928C138.062 16.8913 137.866 17.0351 137.707 17.2146C137.547 17.3942 137.428 17.6055 137.356 17.8345C137.284 18.0636 137.262 18.3052 137.291 18.5434V25.3964H133.484L133.547 13.7425Z" fill="#1E1B1B"/>
<path d="M33.6033 10.7281C32.9575 9.25404 32.1028 7.88037 31.0654 6.64919C29.5317 4.77486 27.6179 3.24599 25.4497 2.1632C23.2815 1.08042 20.9082 0.468272 18.486 0.36705C16.0638 0.265828 13.6475 0.677824 11.3963 1.57593C9.14502 2.47403 7.10984 3.83788 5.42467 5.5777C3.7395 7.31752 2.44254 9.39388 1.61917 11.6701C0.79579 13.9463 0.464658 16.3708 0.64757 18.784C0.830482 21.1972 1.52329 23.5443 2.68039 25.6709C3.83749 27.7976 5.43265 29.6555 7.36089 31.1224C8.59814 32.0824 9.96527 32.8629 11.4216 33.4405C13.4634 34.2758 15.6487 34.706 17.8553 34.7072C22.4102 34.6972 26.7752 32.8848 29.9936 29.6673C33.212 26.4499 35.0212 22.0899 35.0246 17.5431C35.0279 15.1977 34.544 12.8772 33.6033 10.7281V10.7281ZM17.8426 3.84971C19.8242 3.8495 21.7818 4.28184 23.5784 5.11644V5.11644C23.1403 5.3054 22.6797 5.43738 22.2079 5.50913C20.6554 5.73346 19.2173 6.45294 18.1081 7.56018C16.9989 8.66742 16.2781 10.103 16.0534 11.6528C15.9547 12.5219 15.5587 13.3305 14.9322 13.942C14.3058 14.5535 13.4871 14.9306 12.6144 15.0096C11.062 15.2339 9.62381 15.9534 8.5146 17.0607C7.4054 18.1679 6.68464 19.6035 6.45991 21.1532C6.38383 21.9796 6.03061 22.7562 5.45742 23.3573V23.3573C4.46845 21.2714 4.02418 18.9696 4.16595 16.6661C4.30772 14.3627 5.03092 12.1325 6.26826 10.183C7.5056 8.23361 9.21685 6.62831 11.2428 5.51654C13.2687 4.40477 15.5434 3.82266 17.8553 3.82438L17.8426 3.84971ZM7.3482 26.4102C7.50048 26.2708 7.65275 26.1441 7.80503 25.9921C8.93398 24.8995 9.65864 23.4572 9.86077 21.9006C9.94272 21.0256 10.3341 20.2083 10.9648 19.5952C11.5717 18.9645 12.3885 18.5771 13.2616 18.5058C14.8141 18.2814 16.2523 17.562 17.3615 16.4547C18.4707 15.3475 19.1914 13.9119 19.4162 12.3621C19.4711 11.4469 19.8645 10.5847 20.5202 9.94268C21.142 9.32433 21.9667 8.95097 22.8424 8.8913C24.2686 8.69541 25.5988 8.0625 26.6493 7.07988C27.8455 8.07055 28.859 9.26232 29.6441 10.6014C29.5959 10.6664 29.5406 10.7259 29.4791 10.7787C28.8734 11.4149 28.0576 11.8108 27.1823 11.8934C25.6282 12.1139 24.1879 12.8321 23.078 13.94C21.968 15.048 21.2486 16.4858 21.0278 18.0371C20.9383 18.9091 20.5496 19.7235 19.9275 20.3422C19.3054 20.9609 18.4881 21.3459 17.6142 21.4319C16.0572 21.6545 14.6137 22.3726 13.498 23.4794C12.3824 24.5862 11.6542 26.0227 11.4216 27.5756C11.3533 28.1946 11.1403 28.7891 10.7998 29.311C9.49784 28.5393 8.33176 27.5593 7.3482 26.4102V26.4102ZM17.8426 31.2997C16.555 31.3011 15.2735 31.122 14.0357 30.7677C14.4591 29.9798 14.7344 29.1212 14.8478 28.2343C14.9368 27.3641 15.3237 26.5513 15.9432 25.9328C16.5628 25.3144 17.3771 24.9282 18.2487 24.8394C19.8035 24.6176 21.2445 23.8992 22.3562 22.7918C23.4679 21.6843 24.1905 20.2473 24.4159 18.6958C24.5049 17.8257 24.8917 17.0128 25.5113 16.3944C26.1308 15.7759 26.9451 15.3897 27.8168 15.3009C28.9868 15.149 30.102 14.7142 31.0654 14.0342C31.6003 16.0583 31.6637 18.1779 31.2506 20.2302C30.8375 22.2826 29.959 24.2132 28.6824 25.874C27.4058 27.5348 25.765 28.8817 23.886 29.8112C22.007 30.7407 19.9397 31.2283 17.8426 31.2364V31.2997Z" fill="#1E1B1B"/>
</svg>
