<svg width="149" height="30" viewBox="0 0 149 30" fill="none" xmlns="http://www.w3.org/2000/svg">
<path d="M48.0813 24.2117C47.3306 24.2521 46.588 24.04 45.9734 23.6094C45.7166 23.4202 45.51 23.1717 45.3715 22.8853C45.233 22.599 45.1666 22.2834 45.1783 21.9658V10.3351C45.1721 10.2858 45.1774 10.2359 45.1936 10.1889C45.2098 10.142 45.2366 10.0994 45.2719 10.0643C45.3072 10.0292 45.3501 10.0026 45.3973 9.98646C45.4445 9.97033 45.4948 9.96512 45.5443 9.97123H47.6648C47.9046 9.97123 48.0182 10.0967 48.0182 10.3351V21.0625C48.0182 21.5392 48.2328 21.7776 48.6745 21.7776C48.8618 21.7853 49.0491 21.7641 49.2299 21.7149C49.4823 21.7149 49.6212 21.7902 49.6338 22.016L49.8231 23.5843C49.8322 23.6301 49.8314 23.6772 49.8206 23.7226C49.8098 23.7679 49.7894 23.8105 49.7607 23.8473C49.732 23.8842 49.6957 23.9145 49.6542 23.9362C49.6127 23.9579 49.567 23.9706 49.5202 23.9733C49.0557 24.1258 48.5704 24.2062 48.0813 24.2117V24.2117Z" fill="#1E1B1B"/>
<path d="M60.0091 22.8691C58.9436 23.7442 57.6047 24.2229 56.2226 24.2229C54.8404 24.2229 53.5015 23.7442 52.436 22.8691C51.4995 21.9294 50.9741 20.66 50.9741 19.3372C50.9741 18.0145 51.4995 16.7451 52.436 15.8054C53.5036 14.9348 54.8417 14.459 56.2226 14.459C57.6034 14.459 58.9416 14.9348 60.0091 15.8054C60.924 16.7538 61.4349 18.017 61.4349 19.331C61.4349 20.645 60.924 21.9082 60.0091 22.8566V22.8691ZM54.4303 21.213C54.9247 21.6582 55.568 21.9048 56.2352 21.9048C56.9023 21.9048 57.5457 21.6582 58.0401 21.213C58.4876 20.7015 58.7341 20.0465 58.7341 19.3686C58.7341 18.6908 58.4876 18.0357 58.0401 17.5243C57.5457 17.079 56.9023 16.8324 56.2352 16.8324C55.568 16.8324 54.9247 17.079 54.4303 17.5243C53.9828 18.0357 53.7363 18.6908 53.7363 19.3686C53.7363 20.0465 53.9828 20.7015 54.4303 21.213Z" fill="#1E1B1B"/>
<path d="M73.1106 14.7766C73.3504 14.7766 73.464 14.902 73.464 15.1404V24.1364C73.4861 24.7435 73.3718 25.3479 73.1294 25.9057C72.8871 26.4635 72.5228 26.9606 72.063 27.3608C71.0424 28.2259 69.7299 28.6742 68.39 28.6155C67.1797 28.6578 65.9857 28.3293 64.9695 27.6745C64.5355 27.3913 64.1648 27.0223 63.8804 26.5907C63.596 26.159 63.4038 25.6738 63.316 25.1652C63.316 24.9143 63.316 24.8013 63.6568 24.8013H65.7773C65.8673 24.8044 65.9545 24.8332 66.0284 24.8844C66.1023 24.9356 66.1598 25.007 66.1938 25.0899C66.3313 25.471 66.6055 25.7882 66.9637 25.9807C67.4003 26.2046 67.8862 26.3168 68.3774 26.3069C68.6737 26.3231 68.9704 26.2803 69.2499 26.1812C69.5295 26.0821 69.7864 25.9287 70.0056 25.7298C70.2059 25.5217 70.3617 25.2755 70.4636 25.0059C70.5656 24.7364 70.6116 24.4491 70.5988 24.1614V23.371C69.8396 23.9261 68.9156 24.2131 67.9735 24.1865C67.3141 24.2104 66.6567 24.1015 66.0407 23.8665C65.4247 23.6315 64.8629 23.2752 64.3889 22.819C63.4789 21.8831 62.9702 20.6325 62.9702 19.331C62.9702 18.0295 63.4789 16.7788 64.3889 15.843C64.8652 15.3908 65.4277 15.0379 66.0433 14.8052C66.659 14.5725 67.3153 14.4646 67.9735 14.488C68.9428 14.4625 69.8917 14.7681 70.6619 15.3537V15.153C70.6561 15.1049 70.6612 15.0561 70.6767 15.0102C70.6922 14.9643 70.7179 14.9224 70.7517 14.8876C70.7855 14.8527 70.8268 14.8258 70.8724 14.8088C70.918 14.7918 70.9668 14.785 71.0154 14.7891L73.1106 14.7766ZM68.2133 21.9532C68.5385 21.9632 68.8619 21.9021 69.1607 21.7742C69.4595 21.6463 69.7264 21.4547 69.9425 21.213C70.3621 20.6743 70.5898 20.0123 70.5898 19.331C70.5898 18.6497 70.3621 17.9877 69.9425 17.449C69.7271 17.2105 69.4619 17.0218 69.1653 16.8961C68.8688 16.7704 68.5481 16.7107 68.2259 16.7213C67.897 16.711 67.5698 16.7719 67.2668 16.8997C66.9639 17.0275 66.6925 17.2192 66.4715 17.4615C66.0066 17.9768 65.7621 18.6519 65.7899 19.3435C65.7671 20.0283 66.0061 20.6963 66.4589 21.213C66.6804 21.4547 66.9519 21.6459 67.2547 21.7737C67.5575 21.9014 67.8845 21.9627 68.2133 21.9532V21.9532Z" fill="#1E1B1B"/>
<path d="M84.357 22.8689C83.2894 23.7395 81.9513 24.2153 80.5704 24.2153C79.1896 24.2153 77.8514 23.7395 76.7838 22.8689C75.8681 21.9183 75.3569 20.6531 75.3569 19.337C75.3569 18.0209 75.8681 16.7556 76.7838 15.8051C77.8524 14.9368 79.1902 14.4624 80.5704 14.4624C81.9506 14.4624 83.2884 14.9368 84.357 15.8051C85.2719 16.7535 85.7827 18.0167 85.7827 19.3307C85.7827 20.6447 85.2719 21.9079 84.357 22.8563V22.8689ZM78.7655 21.2127C79.0075 21.4415 79.2927 21.6204 79.6047 21.7388C79.9167 21.8573 80.2492 21.913 80.583 21.9028C80.9147 21.9113 81.2449 21.8548 81.5546 21.7364C81.8643 21.618 82.1475 21.44 82.388 21.2127C82.8282 20.6978 83.0699 20.0441 83.0699 19.3684C83.0699 18.6926 82.8282 18.0389 82.388 17.524C82.1475 17.2967 81.8643 17.1188 81.5546 17.0004C81.2449 16.8819 80.9147 16.8254 80.583 16.8339C80.2492 16.8237 79.9167 16.8795 79.6047 16.9979C79.2927 17.1164 79.0075 17.2952 78.7655 17.524C78.3253 18.0389 78.0836 18.6926 78.0836 19.3684C78.0836 20.0441 78.3253 20.6978 78.7655 21.2127V21.2127Z" fill="#1E1B1B"/>
<path d="M90.3395 12.6436C90.0059 12.9339 89.5775 13.0939 89.1341 13.0939C88.6907 13.0939 88.2624 12.9339 87.9287 12.6436C87.7775 12.5017 87.6569 12.3306 87.5746 12.1407C87.4922 11.9508 87.4497 11.7463 87.4497 11.5395C87.4497 11.3327 87.4922 11.1281 87.5746 10.9383C87.6569 10.7484 87.7775 10.5773 87.9287 10.4354C88.2658 10.1523 88.6929 9.99707 89.1341 9.99707C89.5754 9.99707 90.0024 10.1523 90.3395 10.4354C90.4908 10.5773 90.6113 10.7484 90.6937 10.9383C90.7761 11.1281 90.8185 11.3327 90.8185 11.5395C90.8185 11.7463 90.7761 11.9508 90.6937 12.1407C90.6113 12.3306 90.4908 12.5017 90.3395 12.6436V12.6436ZM90.6046 24.2116C89.8543 24.2482 89.113 24.0364 88.4967 23.6094C88.2438 23.4173 88.0408 23.168 87.9047 22.882C87.7685 22.5961 87.7032 22.2819 87.7142 21.9658V15.1404C87.708 15.0911 87.7133 15.0412 87.7295 14.9942C87.7457 14.9473 87.7725 14.9047 87.8078 14.8696C87.8431 14.8345 87.886 14.8079 87.9332 14.7918C87.9804 14.7756 88.0307 14.7704 88.0802 14.7765H90.2007C90.4405 14.7765 90.5541 14.902 90.5541 15.1404V21.0624C90.5541 21.5392 90.7687 21.7776 91.1978 21.7776C91.3892 21.7844 91.5806 21.7633 91.7658 21.7148C92.0182 21.7148 92.1571 21.7901 92.1697 22.0159L92.359 23.5843C92.3681 23.63 92.3673 23.6771 92.3565 23.7225C92.3457 23.7679 92.3253 23.8104 92.2966 23.8473C92.2679 23.8841 92.2316 23.9144 92.1901 23.9362C92.1486 23.9579 92.1029 23.9705 92.0561 23.9732C91.5875 24.1266 91.0979 24.207 90.6046 24.2116V24.2116Z" fill="#1E1B1B"/>
<path d="M100.16 14.4754C100.822 14.4493 101.483 14.5559 102.103 14.7886C102.723 15.0214 103.29 15.3757 103.77 15.8304C104.662 16.7826 105.158 18.0357 105.158 19.3372C105.158 20.6387 104.662 21.8918 103.77 22.844C103.292 23.3027 102.726 23.6604 102.106 23.8955C101.485 24.1306 100.823 24.2381 100.16 24.2115C99.2145 24.2324 98.2883 23.9461 97.5217 23.396V27.9254C97.5217 28.1637 97.3955 28.2767 97.1557 28.2767H95.0352C94.9868 28.2857 94.9369 28.2828 94.8899 28.2683C94.8429 28.2538 94.8002 28.2282 94.7653 28.1936C94.7305 28.159 94.7047 28.1165 94.6902 28.0697C94.6756 28.023 94.6727 27.9735 94.6818 27.9254V17.6371C94.6966 17.5365 94.6876 17.4338 94.6555 17.3372C94.6233 17.2407 94.5688 17.1529 94.4965 17.081C94.4241 17.0091 94.3359 16.955 94.2388 16.923C94.1416 16.891 94.0383 16.8821 93.9371 16.8969H93.5206C93.2429 16.8969 93.104 16.7965 93.104 16.5957V15.1152C93.0975 15.0236 93.1227 14.9325 93.1756 14.8572C93.2284 14.7819 93.3056 14.7268 93.3943 14.7012C93.8309 14.5434 94.293 14.4669 94.7575 14.4754C95.2207 14.4346 95.6856 14.5322 96.0926 14.7558C96.4996 14.9793 96.8302 15.3185 97.0421 15.73C97.4486 15.3212 97.9348 14.9991 98.4708 14.7834C99.0069 14.5676 99.5815 14.4628 100.16 14.4754ZM98.1907 21.2129C98.4157 21.4467 98.6861 21.6328 98.9854 21.7599C99.2848 21.887 99.607 21.9525 99.9325 21.9525C100.258 21.9525 100.58 21.887 100.88 21.7599C101.179 21.6328 101.449 21.4467 101.674 21.2129C102.148 20.6873 102.397 19.9986 102.369 19.2933C102.402 18.5873 102.152 17.8971 101.674 17.3736C101.449 17.1398 101.179 16.9538 100.88 16.8266C100.58 16.6995 100.258 16.634 99.9325 16.634C99.607 16.634 99.2848 16.6995 98.9854 16.8266C98.6861 16.9538 98.4157 17.1398 98.1907 17.3736C97.7314 17.9063 97.4924 18.5923 97.5217 19.2933C97.4961 19.9937 97.7347 20.6783 98.1907 21.2129Z" fill="#1E1B1B"/>
<path d="M111.115 24.2118C109.982 24.2581 108.859 23.9887 107.871 23.4339C107.475 23.1968 107.138 22.874 106.884 22.4895C106.631 22.1051 106.468 21.6689 106.407 21.2132C106.407 20.9622 106.496 20.8368 106.773 20.8368H108.629C108.717 20.8402 108.803 20.8678 108.876 20.9165C108.95 20.9652 109.008 21.0331 109.045 21.1128C109.31 21.7903 110.004 22.1291 111.115 22.1291C111.503 22.1467 111.888 22.0691 112.239 21.9032C112.359 21.849 112.463 21.7632 112.539 21.6549C112.614 21.5466 112.659 21.42 112.668 21.2885C112.668 20.9622 112.466 20.7364 112.062 20.5858C111.583 20.4273 111.087 20.3221 110.585 20.2722C109.99 20.2052 109.4 20.1004 108.818 19.9585C108.252 19.8312 107.738 19.5384 107.341 19.1179C107.108 18.832 106.936 18.5015 106.836 18.1467C106.736 17.792 106.711 17.4207 106.762 17.0559C106.813 16.6911 106.939 16.3406 107.132 16.0262C107.325 15.7118 107.581 15.4403 107.884 15.2284C108.794 14.6523 109.861 14.3717 110.938 14.4254C111.982 14.3904 113.014 14.6468 113.917 15.1657C114.281 15.3707 114.595 15.654 114.835 15.9947C115.075 16.3355 115.236 16.7252 115.306 17.1355C115.306 17.3864 115.192 17.5119 114.965 17.5119H113.097C113.018 17.5165 112.94 17.4975 112.872 17.4572C112.805 17.4169 112.751 17.3572 112.718 17.2861C112.593 16.9889 112.358 16.7508 112.062 16.6211C111.727 16.4471 111.354 16.3608 110.976 16.3702C110.606 16.3502 110.237 16.4235 109.903 16.5835C109.786 16.6286 109.685 16.7076 109.613 16.8105C109.541 16.9134 109.501 17.0353 109.5 17.1606C109.508 17.3322 109.571 17.4967 109.68 17.6299C109.789 17.7631 109.938 17.8581 110.105 17.9009C110.59 18.0824 111.094 18.2087 111.607 18.2773C112.198 18.3545 112.783 18.4634 113.362 18.6035C113.928 18.7307 114.442 19.0235 114.839 19.4441C115.051 19.6758 115.215 19.947 115.321 20.242C115.427 20.537 115.473 20.8501 115.457 21.163C115.468 21.5967 115.366 22.0258 115.16 22.4084C114.954 22.7911 114.652 23.1141 114.283 23.3461C113.34 23.9479 112.235 24.2499 111.115 24.2118V24.2118Z" fill="#1E1B1B"/>
<path d="M128.799 23.5841C128.806 23.6287 128.804 23.6742 128.793 23.718C128.782 23.7618 128.763 23.8031 128.736 23.8393C128.709 23.8755 128.675 23.906 128.636 23.929C128.597 23.952 128.553 23.9669 128.508 23.9731C128.047 24.1226 127.567 24.203 127.082 24.2114C126.602 24.2608 126.118 24.1863 125.676 23.9951C125.233 23.8038 124.848 23.5024 124.558 23.1199C123.666 23.8819 122.513 24.2728 121.339 24.2114C120.794 24.2364 120.249 24.1477 119.741 23.9511C119.232 23.7545 118.771 23.4542 118.386 23.0697C118.003 22.6668 117.707 22.1913 117.514 21.6717C117.321 21.1521 117.235 20.5992 117.262 20.046V15.1402C117.262 14.9018 117.376 14.7764 117.616 14.7764H119.736C119.976 14.7764 120.09 14.9018 120.09 15.1402V19.6696C120.066 20.2339 120.261 20.7857 120.632 21.2128C120.818 21.4085 121.043 21.5623 121.294 21.664C121.544 21.7658 121.813 21.813 122.084 21.8025C122.36 21.8145 122.637 21.7719 122.897 21.6772C123.157 21.5824 123.395 21.4374 123.598 21.2504C123.791 21.0534 123.94 20.8193 124.038 20.5624C124.136 20.3056 124.179 20.0316 124.166 19.7574V15.1402C124.166 14.9018 124.28 14.7764 124.52 14.7764H126.666C126.905 14.7764 127.019 14.9018 127.019 15.1402V21.0497C127.019 21.539 127.233 21.7774 127.65 21.7774C127.846 21.7849 128.041 21.7638 128.231 21.7147C128.278 21.7014 128.328 21.699 128.377 21.7077C128.426 21.7164 128.472 21.736 128.512 21.7649C128.552 21.7939 128.585 21.8315 128.609 21.875C128.632 21.9184 128.645 21.9666 128.647 22.0158L128.799 23.5841Z" fill="#1E1B1B"/>
<path d="M148.855 23.5842C148.866 23.6292 148.867 23.676 148.858 23.7214C148.849 23.7668 148.83 23.8096 148.802 23.8468C148.774 23.884 148.739 23.9146 148.698 23.9365C148.657 23.9583 148.611 23.9708 148.565 23.9732C148.096 24.1248 147.606 24.2052 147.113 24.2116C146.363 24.2501 145.621 24.0381 145.005 23.6093C144.739 23.4257 144.523 23.1796 144.375 22.8929C144.228 22.6062 144.154 22.2877 144.16 21.9657V19.0173C144.186 18.4546 143.997 17.903 143.629 17.474C143.452 17.2779 143.234 17.1233 142.989 17.0213C142.745 16.9194 142.481 16.8726 142.216 16.8843C141.977 16.8754 141.739 16.9204 141.521 17.016C141.302 17.1117 141.108 17.2554 140.954 17.4364C140.62 17.8568 140.45 18.3822 140.474 18.9169V23.5466C140.474 23.785 140.36 23.9105 140.121 23.9105H137.987C137.938 23.9166 137.888 23.9113 137.84 23.8952C137.793 23.8791 137.75 23.8525 137.715 23.8174C137.68 23.7823 137.653 23.7397 137.637 23.6927C137.62 23.6458 137.615 23.5958 137.621 23.5466V19.0173C137.649 18.4608 137.474 17.913 137.129 17.474C136.975 17.2896 136.782 17.1412 136.564 17.0392C136.346 16.9373 136.108 16.8844 135.867 16.8843C135.609 16.874 135.353 16.9178 135.113 17.013C134.874 17.1081 134.658 17.2524 134.479 17.4364C134.118 17.8434 133.932 18.375 133.961 18.9169V23.5466C133.967 23.5958 133.962 23.6458 133.946 23.6927C133.929 23.7397 133.903 23.7823 133.867 23.8174C133.832 23.8525 133.789 23.8791 133.742 23.8952C133.695 23.9113 133.645 23.9166 133.595 23.9105H131.538C131.298 23.9105 131.184 23.785 131.184 23.5466V17.6371C131.199 17.5365 131.19 17.4338 131.158 17.3373C131.126 17.2407 131.071 17.153 130.999 17.081C130.927 17.0091 130.838 16.955 130.741 16.923C130.644 16.8911 130.541 16.8821 130.44 16.8969H130.023C129.745 16.8969 129.606 16.7965 129.606 16.5958V15.1152C129.6 15.0236 129.625 14.9326 129.678 14.8572C129.731 14.7819 129.808 14.7268 129.897 14.7012C130.333 14.5434 130.795 14.4669 131.26 14.4754C131.706 14.4376 132.153 14.526 132.551 14.7302C132.948 14.9344 133.28 15.2463 133.507 15.6297C133.932 15.2285 134.437 14.9189 134.989 14.7203C135.54 14.5217 136.127 14.4383 136.713 14.4754C137.281 14.4478 137.849 14.5538 138.368 14.7849C138.888 15.016 139.346 15.3655 139.704 15.8053C140.122 15.354 140.635 15.0006 141.207 14.7706C141.779 14.5406 142.395 14.4398 143.011 14.4754C143.562 14.4497 144.112 14.538 144.627 14.7345C145.142 14.931 145.61 15.2316 146.002 15.6171C146.386 16.0192 146.683 16.4946 146.876 17.0144C147.069 17.5341 147.154 18.0875 147.126 18.6409V21.0624C147.126 21.5391 147.34 21.7775 147.744 21.7775C147.94 21.7866 148.136 21.7654 148.325 21.7148C148.586 21.7148 148.724 21.8152 148.741 22.0159L148.855 23.5842Z" fill="#1E1B1B"/>
<path d="M0.850505 13.1456C1.78171 9.42507 3.93836 6.12121 6.97705 3.76006C10.0157 1.3989 13.7618 0.116211 17.6187 0.116211C21.4756 0.116211 25.2216 1.3989 28.2603 3.76006C31.299 6.12121 33.4557 9.42507 34.3869 13.1456H32.8723C30.3172 13.1082 27.8145 13.8672 25.7156 15.3161C25.5945 15.4033 25.468 15.4829 25.337 15.5545H25.1603C25.0292 15.4829 24.9027 15.4033 24.7816 15.3161C22.6642 13.9008 20.1704 13.1448 17.6187 13.1448C15.067 13.1448 12.5732 13.9008 10.4558 15.3161C10.3346 15.4033 10.2082 15.4829 10.0771 15.5545H9.90041C9.76934 15.4829 9.64288 15.4033 9.52175 15.3161C7.4229 13.8672 4.92021 13.1082 2.36513 13.1456H0.850505ZM30.1459 21.0123C30.9234 20.4104 31.8871 20.0955 32.8723 20.1215H34.9044V16.094H32.8723C31.137 16.0732 29.4414 16.61 28.0381 17.6247C27.2483 18.2035 26.2929 18.5157 25.3117 18.5157C24.3306 18.5157 23.3752 18.2035 22.5854 17.6247C21.1464 16.629 19.4351 16.0952 17.6818 16.0952C15.9285 16.0952 14.2172 16.629 12.7782 17.6247C11.9884 18.2035 11.033 18.5157 10.0519 18.5157C9.07069 18.5157 8.11529 18.2035 7.32554 17.6247C5.90482 16.5971 4.18495 16.0595 2.42824 16.094H0.333008V20.1215H2.36513C3.35028 20.0955 4.31394 20.4104 5.09146 21.0123C6.52784 22.0087 8.23721 22.543 9.98876 22.543C11.7403 22.543 13.4497 22.0087 14.8861 21.0123C15.6646 20.4123 16.6275 20.0976 17.6124 20.1215C18.5978 20.0934 19.5622 20.4085 20.3387 21.0123C21.7777 22.0081 23.489 22.5419 25.2423 22.5419C26.9956 22.5419 28.7069 22.0081 30.1459 21.0123V21.0123ZM30.1459 28.2141C30.9234 27.6122 31.8871 27.2973 32.8723 27.3233H34.9044V23.2958H32.8723C31.137 23.2749 29.4414 23.8118 28.0381 24.8265C27.2483 25.4053 26.2929 25.7175 25.3117 25.7175C24.3306 25.7175 23.3752 25.4053 22.5854 24.8265C21.1464 23.8308 19.4351 23.297 17.6818 23.297C15.9285 23.297 14.2172 23.8308 12.7782 24.8265C11.9884 25.4053 11.033 25.7175 10.0519 25.7175C9.07069 25.7175 8.11529 25.4053 7.32554 24.8265C5.90482 23.7989 4.18495 23.2613 2.42824 23.2958H0.333008V27.3233H2.36513C3.35028 27.2973 4.31394 27.6122 5.09146 28.2141C6.52784 29.2105 8.23721 29.7448 9.98876 29.7448C11.7403 29.7448 13.4497 29.2105 14.8861 28.2141C15.6646 27.614 16.6275 27.2994 17.6124 27.3233C18.5978 27.2952 19.5622 27.6103 20.3387 28.2141C21.7777 29.2099 23.489 29.7436 25.2423 29.7436C26.9956 29.7436 28.7069 29.2099 30.1459 28.2141V28.2141Z" fill="#1E1B1B"/>
</svg>
