<svg width="162" height="39" viewBox="0 0 162 39" fill="none" xmlns="http://www.w3.org/2000/svg">
<path d="M46.4561 12.2719H50.5295V28.7394H46.4561V12.2719ZM52.1538 22.5451C52.1538 18.4662 54.6917 16.0214 58.4986 16.0214C62.3056 16.0214 64.8435 18.4662 64.8435 22.5451C64.8435 26.624 62.3944 29.0941 58.4986 29.0941C54.6029 29.0941 52.1538 26.7126 52.1538 22.5451ZM60.8082 22.5451C60.8082 20.303 59.9326 18.9856 58.5367 18.9856C57.1408 18.9856 56.2779 20.2523 56.2779 22.5451C56.2779 24.8379 57.1408 26.0919 58.5367 26.0919C59.9326 26.0919 60.8335 24.8379 60.8335 22.5578L60.8082 22.5451ZM66.4678 29.5881H70.4016C70.5807 30.0109 70.8935 30.3635 71.2922 30.5923C71.6908 30.821 72.1536 30.9132 72.6097 30.8548C74.1705 30.8548 74.9826 30.0188 74.9826 28.7774V26.4973H74.9953C74.6592 27.2073 74.1156 27.799 73.4361 28.1947C72.7566 28.5904 71.973 28.7715 71.1884 28.7141C68.2063 28.7141 66.2267 26.4466 66.2267 22.5451C66.2267 18.6436 68.1175 16.2114 71.3026 16.2114C72.1073 16.1685 72.9055 16.3756 73.5873 16.8044C74.2691 17.2332 74.8009 17.8625 75.1095 18.6056H74.9953V16.3128H79.0307V28.6507C79.0307 31.6275 76.3912 33.4896 72.5081 33.4896C68.9804 33.477 66.7216 31.8682 66.4932 29.6008L66.4678 29.5881ZM74.9953 22.5451C74.9953 20.5563 74.0817 19.3023 72.635 19.3023C71.1884 19.3023 70.3001 20.569 70.3001 22.5451C70.3001 24.5212 71.1757 25.6866 72.635 25.6866C74.0944 25.6866 74.9953 24.6099 74.9953 22.5451ZM80.6423 22.5451C80.6423 18.4662 83.1802 16.0214 86.9871 16.0214C90.7941 16.0214 93.332 18.4662 93.332 22.5451C93.332 26.624 90.8702 29.0941 86.9871 29.0941C83.1041 29.0941 80.6676 26.7126 80.6676 22.5451H80.6423ZM89.2967 22.5451C89.2967 20.303 88.4084 18.9856 87.0252 18.9856C85.642 18.9856 84.7664 20.2523 84.7664 22.5451C84.7664 24.8379 85.6293 26.0919 87.0252 26.0919C88.4211 26.0919 89.3221 24.8379 89.3221 22.5578L89.2967 22.5451ZM94.9817 13.3106C94.964 12.8964 95.0708 12.4864 95.2884 12.1333C95.5061 11.7802 95.8246 11.5002 96.2029 11.3293C96.5813 11.1584 97.0022 11.1044 97.4116 11.1742C97.821 11.2441 98.2001 11.4346 98.5001 11.7213C98.8001 12.008 99.0073 12.3777 99.095 12.783C99.1828 13.1882 99.1471 13.6103 98.9925 13.9951C98.838 14.3799 98.5716 14.7097 98.2277 14.9422C97.8838 15.1746 97.4781 15.299 97.0628 15.2994C96.7974 15.3061 96.5333 15.2602 96.2858 15.1642C96.0383 15.0682 95.8124 14.9241 95.6212 14.7403C95.4299 14.5565 95.2771 14.3365 95.1717 14.0933C95.0663 13.85 95.0103 13.5883 95.0071 13.3233L94.9817 13.3106ZM94.9817 16.3001H99.1059V28.7901H95.0451L94.9817 16.3001ZM113.94 22.5451C113.94 26.6113 112.113 28.9674 109.004 28.9674C108.208 29.0164 107.416 28.8204 106.735 28.4059C106.054 27.9913 105.518 27.3782 105.197 26.6493H105.121V32.8056H101.047V16.3381H105.095V18.5676H105.172C105.481 17.8243 106.013 17.1945 106.694 16.7638C107.375 16.3331 108.173 16.1225 108.978 16.1608C112.176 16.1354 114.016 18.4789 114.016 22.5578L113.94 22.5451ZM109.791 22.5451C109.791 20.569 108.864 19.2896 107.43 19.2896C105.996 19.2896 105.095 20.5563 105.083 22.5451C105.07 24.5339 105.996 25.7879 107.43 25.7879C108.864 25.7879 109.867 24.6099 109.867 22.5578L109.791 22.5451ZM120.894 16.0088C124.308 16.0088 126.427 17.6175 126.452 20.2016H122.734C122.734 19.3023 121.986 18.7449 120.869 18.7449C119.752 18.7449 119.219 19.1756 119.219 19.8216C119.219 20.4677 119.689 20.6703 120.628 20.8603L123.242 21.3924C125.78 21.9244 126.795 22.9378 126.795 24.8252C126.795 27.3587 124.447 29.0814 120.958 29.0814C117.468 29.0814 115.196 27.4093 115.032 24.8632H118.978C119.092 25.7879 119.828 26.3326 121.021 26.3326C122.214 26.3326 122.772 25.9526 122.772 25.2812C122.772 24.6099 122.392 24.4959 121.414 24.2932L119.054 23.7992C116.605 23.2798 115.323 22.0004 115.323 20.0876C115.4 17.6049 117.531 16.0214 120.97 16.0214L120.894 16.0088ZM140.436 28.7774H136.49V26.434H136.414C136.193 27.2156 135.712 27.8988 135.05 28.3708C134.388 28.8429 133.584 29.0757 132.772 29.0308C132.158 29.0507 131.548 28.9409 130.98 28.7087C130.412 28.4764 129.9 28.1269 129.477 27.6832C129.054 27.2394 128.73 26.7113 128.526 26.1336C128.321 25.5559 128.242 24.9417 128.292 24.3312V16.3128H132.366V23.4571C132.366 24.9265 133.14 25.7246 134.409 25.7246C134.707 25.7224 135 25.6564 135.27 25.5311C135.54 25.4059 135.78 25.2242 135.974 24.9985C136.167 24.7728 136.31 24.5082 136.393 24.2226C136.475 23.937 136.495 23.6371 136.452 23.3431V16.3128H140.513L140.436 28.7774ZM142.403 16.3001H146.363V18.7069H146.451C146.67 17.9359 147.139 17.2591 147.784 16.7823C148.429 16.3055 149.215 16.0558 150.017 16.0721C150.823 16.0022 151.626 16.2348 152.269 16.7244C152.912 17.214 153.349 17.9254 153.494 18.7196H153.672C153.925 17.9212 154.436 17.2288 155.125 16.75C155.813 16.2713 156.641 16.0329 157.479 16.0721C158.036 16.0509 158.591 16.1474 159.108 16.3553C159.625 16.5631 160.093 16.8777 160.479 17.2782C160.866 17.6788 161.164 18.1565 161.353 18.6799C161.543 19.2033 161.619 19.7607 161.578 20.3157V28.7901H157.479V21.3544C157.479 20.0876 156.882 19.3783 155.728 19.3783C155.471 19.3741 155.217 19.4252 154.983 19.5282C154.749 19.6311 154.539 19.7835 154.369 19.9748C154.199 20.1661 154.073 20.3919 153.998 20.6365C153.924 20.8812 153.904 21.139 153.938 21.3924V28.7901H150.055V21.3164C150.055 20.0496 149.433 19.3783 148.317 19.3783C148.058 19.3762 147.802 19.4294 147.565 19.5344C147.329 19.6393 147.117 19.7936 146.946 19.9867C146.774 20.1799 146.645 20.4075 146.569 20.6543C146.492 20.9011 146.47 21.1614 146.502 21.4177V28.7901H142.429L142.403 16.3001Z" fill="#1E1B1B"/>
<path d="M38.3981 13.3489C38.3982 10.8277 37.6355 8.36528 36.2099 6.28412C34.7843 4.20296 32.7623 2.60011 30.4087 1.68552C28.0551 0.770937 25.4796 0.587259 23.0197 1.15854C20.5597 1.72983 18.33 3.02944 16.6225 4.88715H0.785645V38.2528H34.2231V22.6594C35.5356 21.4876 36.5857 20.0528 37.3051 18.4485C38.0245 16.8442 38.3969 15.1066 38.3981 13.3489V13.3489ZM31.9644 13.3489C31.9669 14.557 31.6103 15.7387 30.9397 16.7445C30.2692 17.7502 29.3148 18.5347 28.1974 18.9988C27.08 19.4629 25.8498 19.5856 24.6624 19.3514C23.4751 19.1173 22.3841 18.5368 21.5274 17.6834C20.6708 16.83 20.087 15.7421 19.8499 14.5574C19.6129 13.3727 19.7333 12.1444 20.1958 11.028C20.6584 9.91158 21.4423 8.95726 22.4485 8.28581C23.4546 7.61435 24.6376 7.25594 25.8479 7.25594C27.4679 7.25593 29.0217 7.89746 30.1684 9.03975C31.3151 10.182 31.961 11.7318 31.9644 13.3489V13.3489ZM27.7894 31.8305H7.21935V11.3095H13.4881C13.367 11.9827 13.3033 12.6649 13.2977 13.3489C13.3011 16.6705 14.6244 19.8551 16.9773 22.2038C19.3302 24.5525 22.5204 25.8735 25.8479 25.8769C26.4984 25.8734 27.1477 25.8184 27.7894 25.7122V31.8305Z" fill="#1E1B1B"/>
</svg>
